<?xml version="1.0" standalone="no"?>
<!DOCTYPE svg PUBLIC "-//W3C//DTD SVG 20010904//EN"
 "http://www.w3.org/TR/2001/REC-SVG-20010904/DTD/svg10.dtd">
<svg version="1.0" xmlns="http://www.w3.org/2000/svg"
 width="256.000000pt" height="256.000000pt" viewBox="0 0 256.000000 256.000000"
 preserveAspectRatio="xMidYMid meet">
<metadata>
Created by potrace 1.16, written by Peter Selinger 2001-2019
</metadata>
<g transform="translate(0.000000,256.000000) scale(0.100000,-0.100000)"
fill="#000000" stroke="none">
<path d="M328 2405 c-3 -3 -25 -7 -48 -10 -54 -5 -109 -55 -117 -106 -11 -67
-14 -1589 -3 -1628 5 -21 21 -56 35 -77 l25 -39 -31 35 c-17 19 -27 26 -21 15
6 -11 23 -31 38 -45 15 -14 24 -19 20 -12 -10 17 -2 15 36 -8 31 -19 51 -20
356 -20 267 0 322 -2 322 -14 0 -25 -31 -87 -40 -81 -5 3 -7 -1 -4 -9 6 -15
-89 -126 -108 -126 -5 0 7 14 27 31 19 17 45 45 56 63 20 29 19 29 -9 -4 -17
-19 -48 -50 -69 -68 -21 -19 -32 -31 -24 -26 11 6 13 3 7 -12 -17 -42 -18 -55
-2 -81 l17 -28 -20 24 c-12 13 -21 19 -21 14 0 -6 8 -17 18 -26 15 -14 70 -16
497 -14 267 1 488 6 499 11 15 7 18 6 11 -5 -5 -8 1 -5 13 5 12 11 22 24 22
29 0 6 -7 2 -15 -9 -14 -18 -14 -17 -4 9 9 20 9 33 1 52 -15 32 -15 38 -2 30
16 -10 11 1 -7 16 -11 10 -14 10 -9 2 18 -31 -15 -9 -61 40 -50 53 -85 109
-97 157 -3 14 3 8 14 -15 17 -34 18 -20 3 23 -4 9 63 12 313 12 301 0 321 1
352 20 38 23 46 25 36 8 -4 -7 5 -2 20 12 15 14 32 34 38 45 6 11 -4 4 -21
-15 l-31 -35 25 39 c14 21 30 56 35 77 11 39 8 1561 -3 1628 -7 44 -63 101
-108 108 -44 8 -1954 15 -1961 8z m1919 -158 c17 -17 18 -58 21 -647 l2 -630
-990 0 -990 0 0 614 c0 380 4 625 10 641 5 14 20 30 32 35 14 5 410 8 960 7
885 -2 938 -3 955 -20z m21 -1491 c-2 -42 -9 -80 -17 -90 -12 -15 -96 -16
-971 -16 -875 0 -959 1 -971 16 -8 10 -15 48 -17 90 l-4 74 992 0 992 0 -4
-74z m-817 -268 c2 -22 2 -22 7 2 4 21 7 17 19 -25 8 -27 15 -60 16 -72 1 -12
4 -19 6 -17 4 4 12 -6 45 -58 l18 -27 -281 0 -281 0 29 52 c16 29 37 78 46
109 l16 56 179 2 180 1 1 -23z"/>
<path d="M1703 2174 c-15 -14 -22 -22 -14 -18 11 6 13 3 7 -12 -31 -78 -219
-638 -225 -672 -8 -39 -6 -44 21 -67 16 -14 39 -25 50 -25 22 0 88 61 88 82 0
7 -9 -1 -20 -19 -35 -58 -74 -67 -117 -27 l-28 25 32 -22 c37 -26 75 -20 97
14 14 22 236 666 236 684 0 6 -9 23 -21 39 l-21 29 26 -28 c14 -15 26 -24 26
-19 0 5 -9 17 -21 28 -22 20 -67 21 -104 2 -16 -8 -18 -8 -8 2 6 7 26 16 45
20 30 7 31 8 6 9 -16 1 -38 -9 -55 -25z"/>
<path d="M428 2109 c-18 -17 -27 -27 -19 -23 11 5 13 3 8 -10 -4 -10 -8 -27
-8 -39 -1 -17 -3 -15 -9 8 l-9 30 2 -28 c1 -15 5 -26 8 -25 11 5 48 -33 46
-46 -1 -8 99 -12 366 -14 l368 -2 30 29 c33 34 39 81 12 102 -15 11 -16 11 -5
-1 20 -23 14 -69 -13 -95 l-24 -25 -368 2 -368 3 373 5 c355 5 374 6 388 24
18 26 18 70 -1 86 -8 7 -13 16 -10 20 3 5 0 12 -6 16 -7 4 -10 3 -6 -2 3 -5
-142 -8 -355 -6 -322 2 -363 1 -387 -14 -25 -16 -26 -16 -8 2 16 18 43 19 380
24 l362 5 -357 3 -358 2 -32 -31z"/>
<path d="M1323 1982 c-24 -18 -43 -35 -43 -38 0 -3 17 7 38 23 40 32 80 55 52
31 -9 -7 -63 -48 -120 -91 -58 -43 -87 -63 -66 -45 79 66 89 79 26 31 -68 -52
-72 -62 -54 -138 4 -15 1 -14 -10 5 -9 14 -15 20 -16 14 0 -7 9 -22 21 -35 11
-13 18 -18 14 -11 -9 18 10 15 26 -5 10 -11 10 -14 2 -9 -19 11 -16 1 4 -15
11 -10 14 -10 9 -1 -14 23 6 12 87 -51 45 -35 90 -67 100 -70 26 -10 66 9 78
37 19 41 3 69 -71 125 l-70 53 68 52 c37 28 71 51 76 51 5 0 9 20 9 45 0 32
-4 45 -14 45 -8 0 -14 6 -14 14 0 9 -14 14 -44 15 -36 1 -53 -5 -88 -32z"/>
<path d="M1839 1989 c-17 -17 -20 -29 -16 -60 3 -22 1 -37 -4 -33 -5 3 -9 3
-9 0 0 -2 19 -19 43 -36 l42 -32 -35 32 c-41 37 -10 24 35 -15 17 -15 23 -23
15 -19 -13 7 -13 5 -1 -9 15 -18 26 -23 16 -7 -10 16 11 12 25 -5 11 -13 10
-18 -7 -30 -11 -8 -43 -32 -71 -55 -44 -34 -52 -45 -52 -75 0 -24 7 -39 26
-54 15 -12 22 -21 17 -21 -12 0 -48 39 -56 60 -5 13 -6 13 -6 -1 -1 -8 11 -27
27 -41 42 -39 86 -32 160 26 34 26 62 49 62 52 0 3 -30 -18 -66 -46 -37 -27
-72 -50 -78 -50 -6 0 -2 6 9 12 11 6 67 47 125 91 60 45 86 61 60 37 l-45 -42
41 31 c43 32 83 73 55 56 -11 -6 -13 -4 -8 9 4 10 8 27 8 39 1 17 3 15 9 -8
l9 -30 -2 30 c-1 17 -5 28 -9 25 -4 -3 -22 9 -40 26 -18 17 -59 50 -90 74 -52
38 -78 63 -45 44 8 -5 8 -2 -2 9 -15 18 -26 23 -16 7 10 -16 -5 -12 -32 10
-33 26 -68 25 -94 -1z"/>
<path d="M439 1833 c-1 -2 -2 -9 -3 -15 0 -7 -7 -13 -15 -13 -10 0 -14 -13
-14 -45 0 -32 4 -45 14 -45 8 0 14 -6 14 -13 0 -10 60 -13 285 -13 225 0 285
3 285 13 0 7 6 13 14 13 10 0 14 13 14 45 0 32 -4 45 -14 45 -8 0 -14 6 -14
13 0 10 -61 13 -283 15 -155 1 -283 1 -283 0z"/>
<path d="M445 1550 c-3 -5 -3 -10 1 -10 4 0 -1 -9 -11 -20 -9 -10 -22 -18 -29
-17 -6 1 -12 -11 -13 -28 l-2 -30 9 30 c6 23 8 25 9 8 0 -12 4 -29 8 -39 5
-13 3 -15 -8 -10 -8 4 1 -6 19 -23 l32 -31 323 2 322 2 -327 6 c-305 5 -329 6
-345 24 -18 19 -17 19 7 2 21 -14 64 -16 348 -16 l323 0 26 26 c20 20 24 32
19 55 -4 21 -2 28 6 23 7 -4 8 -3 4 5 -4 6 -11 9 -16 6 -4 -3 -13 2 -20 10
-11 13 -65 15 -349 17 l-336 3 334 2 c257 3 337 0 350 -9 14 -12 14 -11 2 5
-12 16 -41 17 -347 17 -211 0 -335 -4 -339 -10z"/>
<path d="M411 1234 c-12 -15 -21 -37 -21 -50 0 -22 44 -84 60 -84 5 0 -5 13
-21 29 -32 32 -37 67 -14 97 13 17 13 16 3 -13 -15 -40 1 -79 37 -93 34 -13
1570 -14 1570 -1 0 13 14 26 28 26 5 0 12 7 14 15 4 13 3 13 -6 0 -8 -12 -11
-7 -11 21 0 74 56 70 -828 67 -434 -2 -788 0 -785 5 11 18 -8 4 -26 -19z"/>
<path d="M1167 807 c-7 -5 -1 -5 13 -2 l25 7 -25 -19 c-14 -10 -29 -18 -34
-18 -5 0 -11 -7 -13 -15 -4 -13 -3 -13 6 0 8 12 11 8 11 -19 0 -19 8 -44 18
-55 16 -20 16 -20 -2 -6 -10 8 -22 23 -26 35 -6 14 -9 16 -9 4 -1 -9 8 -24 18
-33 16 -14 39 -17 131 -17 92 0 115 3 131 17 10 9 19 24 18 33 0 12 -3 10 -9
-4 -4 -12 -16 -27 -26 -35 -18 -14 -18 -14 -1 6 9 11 17 36 17 55 0 27 3 31
11 19 9 -13 10 -13 6 0 -2 8 -8 15 -13 15 -5 0 -20 8 -34 18 l-25 19 25 -7
c14 -4 22 -4 18 0 -9 10 -217 12 -231 2z"/>
</g>
</svg>
